<svg width="593" height="593" version="1.1" xmlns="http://www.w3.org/2000/svg" desc="Created with imagetracer.js version 1.2.6" ><path fill="rgb(25,27,43)" stroke="rgb(25,27,43)" stroke-width="1" opacity="0.6745098039215687" d="M 292.5 0 L 301 0.5 L 292.5 1 L 292.5 0 Z " /><path fill="rgb(25,27,43)" stroke="rgb(25,27,43)" stroke-width="1" opacity="0.6745098039215687" d="M 272.5 1 L 283 1.5 L 272.5 2 L 272.5 1 Z " /><path fill="rgb(25,27,43)" stroke="rgb(25,27,43)" stroke-width="1" opacity="0.6745098039215687" d="M 310.5 1 L 322 1.5 L 310.5 2 L 310.5 1 Z " /><path fill="rgb(25,27,43)" stroke="rgb(25,27,43)" stroke-width="1" opacity="0.6745098039215687" d="M 262.5 2 L 269 2.5 L 262.5 3 L 262.5 2 Z " /><path fill="rgb(25,27,43)" stroke="rgb(25,27,43)" stroke-width="1" opacity="0.6745098039215687" d="M 325.5 2 L 332 2.5 L 325.5 3 L 325.5 2 Z " /><path fill="rgb(25,27,43)" stroke="rgb(25,27,43)" stroke-width="1" opacity="0.6745098039215687" d="M 254.5 3 L 260 3.5 L 254.5 4 L 254.5 3 Z " /><path fill="rgb(25,27,43)" stroke="rgb(25,27,43)" stroke-width="1" opacity="0.6745098039215687" d="M 334.5 3 L 339 3.5 L 334.5 4 L 334.5 3 Z " /><path fill="rgb(25,27,43)" stroke="rgb(25,27,43)" stroke-width="1" opacity="0.6745098039215687" d="M 248.5 4 L 252 4.5 L 248.5 5 L 248.5 4 Z " /><path fill="rgb(25,27,43)" stroke="rgb(25,27,43)" stroke-width="1" opacity="0.6745098039215687" d="M 341.5 4 L 346 4.5 L 341.5 5 L 341.5 4 Z " /><path fill="rgb(25,27,43)" stroke="rgb(25,27,43)" stroke-width="1" opacity="0.6745098039215687" d="M 242.5 5 L 246 5.5 L 242.5 6 L 242.5 5 Z " /><path fill="rgb(25,27,43)" stroke="rgb(25,27,43)" stroke-width="1" opacity="0.6745098039215687" d="M 347.5 5 L 351 5.5 L 347.5 6 L 347.5 5 Z " /><path fill="rgb(25,27,43)" stroke="rgb(25,27,43)" stroke-width="1" opacity="0.6745098039215687" d="M 237.5 6 L 241 6.5 L 237.5 7 L 237.5 6 Z " /><path fill="rgb(25,27,43)" stroke="rgb(25,27,43)" stroke-width="1" opacity="0.6745098039215687" d="M 353.5 6 L 356 6.5 L 353.5 7 L 353.5 6 Z " /><path fill="rgb(25,27,43)" stroke="rgb(25,27,43)" stroke-width="1" opacity="0.6745098039215687" d="M 232.5 7 L 236 7.5 L 232.5 8 L 232.5 7 Z " /><path fill="rgb(25,27,43)" stroke="rgb(25,27,43)" stroke-width="1" opacity="0.6745098039215687" d="M 358.5 7 L 361 7.5 L 358.5 8 L 358.5 7 Z " /><path fill="rgb(25,27,43)" stroke="rgb(25,27,43)" stroke-width="1" opacity="0.6745098039215687" d="M 228.5 8 L 231 8.5 L 228.5 9 L 228.5 8 Z " /><path fill="rgb(25,27,43)" stroke="rgb(25,27,43)" stroke-width="1" opacity="0.6745098039215687" d="M 363.5 8 L 366 8.5 L 363.5 9 L 363.5 8 Z " /><path fill="rgb(25,27,43)" stroke="rgb(25,27,43)" stroke-width="1" opacity="0.6745098039215687" d="M 224.5 9 L 227 9.5 L 224.5 10 L 224.5 9 Z " /><path fill="rgb(25,27,43)" stroke="rgb(25,27,43)" stroke-width="1" opacity="0.6745098039215687" d="M 367.5 9 L 370 9.5 L 367.5 10 L 367.5 9 Z " /><path fill="rgb(25,27,43)" stroke="rgb(25,27,43)" stroke-width="1" opacity="0.6745098039215687" d="M 220.5 10 L 223 10.5 L 220.5 11 L 220.5 10 Z " /><path fill="rgb(25,27,43)" stroke="rgb(25,27,43)" stroke-width="1" opacity="0.6745098039215687" d="M 216.5 11 L 219 11.5 L 216.5 12 L 216.5 11 Z " /><path fill="rgb(25,27,43)" stroke="rgb(25,27,43)" stroke-width="1" opacity="0.6745098039215687" d="M 378.5 12 L 381 12.5 L 378.5 13 L 378.5 12 Z " /><path fill="rgb(25,27,43)" stroke="rgb(25,27,43)" stroke-width="1" opacity="0.6745098039215687" d="M 206.5 14 L 209 14.5 L 206.5 15 L 206.5 14 Z " /><path fill="rgb(25,27,43)" stroke="rgb(25,27,43)" stroke-width="1" opacity="0.6745098039215687" d="M 405.5 21 L 409 22.5 L 407.5 23 L 405.5 21 Z " /><path fill="rgb(25,27,43)" stroke="rgb(25,27,43)" stroke-width="1" opacity="0.6745098039215687" d="M 177.5 25 L 179 25.5 L 175.5 27 L 175.5 26 L 177.5 25 Z " /><path fill="rgb(25,27,43)" stroke="rgb(25,27,43)" stroke-width="1" opacity="0.6745098039215687" d="M 421.5 28 L 427 30.5 L 425.5 31 L 421.5 29 L 421.5 28 Z " /><path fill="rgb(25,27,43)" stroke="rgb(25,27,43)" stroke-width="1" opacity="0.6745098039215687" d="M 432.5 33 L 438 36.5 L 436.5 36 Q 432.5 35.5 432.5 33 Z " /><path fill="rgb(25,27,43)" stroke="rgb(25,27,43)" stroke-width="1" opacity="0.6745098039215687" d="M 153.5 37 L 152.5 39 L 150.5 40 L 151.5 38 L 153.5 37 Z " /><path fill="rgb(25,27,43)" stroke="rgb(25,27,43)" stroke-width="1" opacity="0.6745098039215687" d="M 443.5 39 L 447 41.5 L 445.5 41 L 443.5 39 Z " /><path fill="rgb(25,27,43)" stroke="rgb(25,27,43)" stroke-width="1" opacity="0.6745098039215687" d="M 146.5 41 L 145.5 43 L 146.5 41 Z " /><path fill="rgb(25,27,43)" stroke="rgb(25,27,43)" stroke-width="1" opacity="0.6745098039215687" d="M 448.5 42 L 452 44.5 L 450.5 44 L 448.5 42 Z " /><path fill="rgb(25,27,43)" stroke="rgb(25,27,43)" stroke-width="1" opacity="0.6745098039215687" d="M 141.5 44 L 140.5 46 L 141.5 44 Z " /><path fill="rgb(25,27,43)" stroke="rgb(25,27,43)" stroke-width="1" opacity="0.6745098039215687" d="M 453.5 45 L 454.5 47 L 453.5 45 Z " /><path fill="rgb(25,27,43)" stroke="rgb(25,27,43)" stroke-width="1" opacity="0.6745098039215687" d="M 138.5 46 L 137.5 48 L 138.5 46 Z " /><path fill="rgb(25,27,43)" stroke="rgb(25,27,43)" stroke-width="1" opacity="0.6745098039215687" d="M 456.5 47 L 467 54.5 L 464.5 53 L 457.5 49 L 456.5 47 Z " /><path fill="rgb(25,27,43)" stroke="rgb(25,27,43)" stroke-width="1" opacity="0.6745098039215687" d="M 135.5 48 L 134.5 50 L 128.5 54 L 130.5 51 L 135.5 48 Z " /><path fill="rgb(25,27,43)" stroke="rgb(25,27,43)" stroke-width="1" opacity="0.6745098039215687" d="M 126.5 54 L 125.5 56 L 126.5 54 Z " /><path fill="rgb(25,27,43)" stroke="rgb(25,27,43)" stroke-width="1" opacity="0.6745098039215687" d="M 468.5 55 L 474 59.5 L 471.5 58 L 468.5 55 Z " /><path fill="rgb(25,27,43)" stroke="rgb(25,27,43)" stroke-width="1" opacity="0.6745098039215687" d="M 123.5 56 L 121.5 59 L 123.5 56 Z " /><path fill="rgb(25,27,43)" stroke="rgb(25,27,43)" stroke-width="1" opacity="0.6745098039215687" d="M 119.5 59 L 117.5 62 L 119.5 59 Z " /><path fill="rgb(25,27,43)" stroke="rgb(25,27,43)" stroke-width="1" opacity="0.6745098039215687" d="M 475.5 60 L 478.5 64 L 475.5 60 Z " /><path fill="rgb(25,27,43)" stroke="rgb(25,27,43)" stroke-width="1" opacity="0.6745098039215687" d="M 115.5 62 L 112.5 66 L 107.5 70 L 111.5 65 L 115.5 62 Z " /><path fill="rgb(25,27,43)" stroke="rgb(25,27,43)" stroke-width="1" opacity="0.6745098039215687" d="M 480.5 64 L 483.5 68 L 480.5 64 Z " /><path fill="rgb(25,27,43)" stroke="rgb(25,27,43)" stroke-width="1" opacity="0.6745098039215687" d="M 485.5 68 L 489.5 73 L 485.5 68 Z " /><path fill="rgb(25,27,43)" stroke="rgb(25,27,43)" stroke-width="1" opacity="0.6745098039215687" d="M 105.5 70 L 99.5 77 L 105.5 70 Z " /><path fill="rgb(25,27,43)" stroke="rgb(25,27,43)" stroke-width="1" opacity="0.6745098039215687" d="M 491.5 73 L 501.5 84 L 491.5 73 Z " /><path fill="rgb(25,27,43)" stroke="rgb(25,27,43)" stroke-width="1" opacity="0.6745098039215687" d="M 97.5 77 L 77.5 98 L 97.5 77 Z " /><path fill="rgb(25,27,43)" stroke="rgb(25,27,43)" stroke-width="1" opacity="0.6745098039215687" d="M 503.5 84 L 509.5 91 L 503.5 84 Z " /><path fill="rgb(25,27,43)" stroke="rgb(25,27,43)" stroke-width="1" opacity="0.6745098039215687" d="M 510.5 92 L 526 108.5 L 520 103.5 L 510.5 92 Z " /><path fill="rgb(25,27,43)" stroke="rgb(25,27,43)" stroke-width="1" opacity="0.6745098039215687" d="M 76.5 99 L 70.5 106 L 76.5 99 Z " /><path fill="rgb(25,27,43)" stroke="rgb(25,27,43)" stroke-width="1" opacity="0.6745098039215687" d="M 69.5 107 L 66 111.5 L 62.5 116 L 65 112.5 L 69.5 107 Z " /><path fill="rgb(25,27,43)" stroke="rgb(25,27,43)" stroke-width="1" opacity="0.6745098039215687" d="M 526.5 110 L 529.5 114 L 526.5 110 Z " /><path fill="rgb(25,27,43)" stroke="rgb(25,27,43)" stroke-width="1" opacity="0.6745098039215687" d="M 530.5 115 L 532.5 118 L 530.5 115 Z " /><path fill="rgb(25,27,43)" stroke="rgb(25,27,43)" stroke-width="1" opacity="0.6745098039215687" d="M 61.5 117 L 59.5 120 L 61.5 117 Z " /><path fill="rgb(25,27,43)" stroke="rgb(25,27,43)" stroke-width="1" opacity="0.6745098039215687" d="M 533.5 119 L 535.5 122 L 533.5 119 Z " /><path fill="rgb(25,27,43)" stroke="rgb(25,27,43)" stroke-width="1" opacity="0.6745098039215687" d="M 58.5 121 L 56.5 124 L 58.5 121 Z " /><path fill="rgb(25,27,43)" stroke="rgb(25,27,43)" stroke-width="1" opacity="0.6745098039215687" d="M 536.5 123 L 541 128.5 L 538 126.5 L 536.5 123 Z " /><path fill="rgb(25,27,43)" stroke="rgb(25,27,43)" stroke-width="1" opacity="0.6745098039215687" d="M 55.5 125 L 54.5 127 L 55.5 125 Z " /><path fill="rgb(25,27,43)" stroke="rgb(25,27,43)" stroke-width="1" opacity="0.6745098039215687" d="M 53.5 128 L 52 130.5 L 48.5 136 L 49 134.5 L 53.5 128 Z " /><path fill="rgb(25,27,43)" stroke="rgb(25,27,43)" stroke-width="1" opacity="0.6745098039215687" d="M 541.5 130 L 542.5 132 L 541.5 130 Z " /><path fill="rgb(25,27,43)" stroke="rgb(25,27,43)" stroke-width="1" opacity="0.6745098039215687" d="M 543.5 133 L 544.5 135 L 543.5 133 Z " /><path fill="rgb(25,27,43)" stroke="rgb(25,27,43)" stroke-width="1" opacity="0.6745098039215687" d="M 545.5 136 L 546.5 138 L 545.5 136 Z " /><path fill="rgb(25,27,43)" stroke="rgb(25,27,43)" stroke-width="1" opacity="0.6745098039215687" d="M 47.5 137 L 46.5 139 L 47.5 137 Z " /><path fill="rgb(25,27,43)" stroke="rgb(25,27,43)" stroke-width="1" opacity="0.6745098039215687" d="M 547.5 139 L 550 142.5 L 548 141.5 L 547.5 139 Z " /><path fill="rgb(25,27,43)" stroke="rgb(25,27,43)" stroke-width="1" opacity="0.6745098039215687" d="M 45.5 140 L 44.5 142 L 45.5 140 Z " /><path fill="rgb(25,27,43)" stroke="rgb(25,27,43)" stroke-width="1" opacity="0.6745098039215687" d="M 550.5 144 L 553 147.5 L 551 146.5 L 550.5 144 Z " /><path fill="rgb(25,27,43)" stroke="rgb(25,27,43)" stroke-width="1" opacity="0.6745098039215687" d="M 42.5 145 L 41.5 147 L 42.5 145 Z " /><path fill="rgb(25,27,43)" stroke="rgb(25,27,43)" stroke-width="1" opacity="0.6745098039215687" d="M 39.5 150 L 39 151.5 L 37.5 154 L 38 152.5 L 39.5 150 Z " /><path fill="rgb(25,27,43)" stroke="rgb(25,27,43)" stroke-width="1" opacity="0.6745098039215687" d="M 554.5 151 L 557 154.5 L 555 153.5 L 554.5 151 Z " /><path fill="rgb(25,27,43)" stroke="rgb(25,27,43)" stroke-width="1" opacity="0.6745098039215687" d="M 566.5 174 L 568 177.5 L 567 177.5 L 566.5 174 Z " /><path fill="rgb(25,27,43)" stroke="rgb(25,27,43)" stroke-width="1" opacity="0.6745098039215687" d="M 26.5 175 L 27 176.5 L 25.5 179 L 25 177.5 L 26.5 175 Z " /><path fill="rgb(25,27,43)" stroke="rgb(25,27,43)" stroke-width="1" opacity="0.6745098039215687" d="M 573.5 191 L 575 194.5 L 574 194.5 L 573.5 191 Z " /><path fill="rgb(25,27,43)" stroke="rgb(25,27,43)" stroke-width="1" opacity="0.6745098039215687" d="M 14.5 206 L 15 208.5 L 14 208.5 L 14.5 206 Z " /><path fill="rgb(25,27,43)" stroke="rgb(25,27,43)" stroke-width="1" opacity="0.6745098039215687" d="M 580.5 211 L 581 213.5 L 580 213.5 L 580.5 211 Z " /><path fill="rgb(25,27,43)" stroke="rgb(25,27,43)" stroke-width="1" opacity="0.6745098039215687" d="M 11.5 216 L 12 218.5 L 11 218.5 L 11.5 216 Z " /><path fill="rgb(25,27,43)" stroke="rgb(25,27,43)" stroke-width="1" opacity="0.6745098039215687" d="M 582.5 218 L 583 220.5 L 582 220.5 L 582.5 218 Z " /><path fill="rgb(25,27,43)" stroke="rgb(25,27,43)" stroke-width="1" opacity="0.6745098039215687" d="M 10.5 220 L 11 222.5 L 10 222.5 L 10.5 220 Z " /><path fill="rgb(25,27,43)" stroke="rgb(25,27,43)" stroke-width="1" opacity="0.6745098039215687" d="M 583.5 222 L 584 224.5 L 583 224.5 L 583.5 222 Z " /><path fill="rgb(25,27,43)" stroke="rgb(25,27,43)" stroke-width="1" opacity="0.6745098039215687" d="M 9.5 224 L 10 226.5 L 9 226.5 L 9.5 224 Z " /><path fill="rgb(25,27,43)" stroke="rgb(25,27,43)" stroke-width="1" opacity="0.6745098039215687" d="M 584.5 226 L 585 228.5 L 584 228.5 L 584.5 226 Z " /><path fill="rgb(25,27,43)" stroke="rgb(25,27,43)" stroke-width="1" opacity="0.6745098039215687" d="M 8.5 228 L 9 230.5 L 8 230.5 L 8.5 228 Z " /><path fill="rgb(25,27,43)" stroke="rgb(25,27,43)" stroke-width="1" opacity="0.6745098039215687" d="M 585.5 230 L 586 232.5 L 585 232.5 L 585.5 230 Z " /><path fill="rgb(25,27,43)" stroke="rgb(25,27,43)" stroke-width="1" opacity="0.6745098039215687" d="M 7.5 232 L 8 235.5 L 7 235.5 L 7.5 232 Z " /><path fill="rgb(25,27,43)" stroke="rgb(25,27,43)" stroke-width="1" opacity="0.6745098039215687" d="M 586.5 235 L 587 237.5 L 586 237.5 L 586.5 235 Z " /><path fill="rgb(25,27,43)" stroke="rgb(25,27,43)" stroke-width="1" opacity="0.6745098039215687" d="M 6.5 237 L 7 240.5 L 6 240.5 L 6.5 237 Z " /><path fill="rgb(25,27,43)" stroke="rgb(25,27,43)" stroke-width="1" opacity="0.6745098039215687" d="M 587.5 239 L 588 242.5 L 587 242.5 L 587.5 239 Z " /><path fill="rgb(25,27,43)" stroke="rgb(25,27,43)" stroke-width="1" opacity="0.6745098039215687" d="M 5.5 242 L 6 245.5 L 5 245.5 L 5.5 242 Z " /><path fill="rgb(25,27,43)" stroke="rgb(25,27,43)" stroke-width="1" opacity="0.6745098039215687" d="M 588.5 245 L 589 248.5 L 588 248.5 L 588.5 245 Z " /><path fill="rgb(25,27,43)" stroke="rgb(25,27,43)" stroke-width="1" opacity="0.6745098039215687" d="M 4.5 248 L 5 251.5 L 4 251.5 L 4.5 248 Z " /><path fill="rgb(25,27,43)" stroke="rgb(25,27,43)" stroke-width="1" opacity="0.6745098039215687" d="M 589.5 251 L 590 255.5 L 589 255.5 L 589.5 251 Z " /><path fill="rgb(25,27,43)" stroke="rgb(25,27,43)" stroke-width="1" opacity="0.6745098039215687" d="M 3.5 254 L 4 259.5 L 3 259.5 L 3.5 254 Z " /><path fill="rgb(25,27,43)" stroke="rgb(25,27,43)" stroke-width="1" opacity="0.6745098039215687" d="M 590.5 258 L 591 263.5 L 590 263.5 L 590.5 258 Z " /><path fill="rgb(25,27,43)" stroke="rgb(25,27,43)" stroke-width="1" opacity="0.6745098039215687" d="M 2.5 262 L 3 268.5 L 2 268.5 L 2.5 262 Z " /><path fill="rgb(25,27,43)" stroke="rgb(25,27,43)" stroke-width="1" opacity="0.6745098039215687" d="M 591.5 266 L 592 274.5 L 591 274.5 L 591.5 266 Z " /><path fill="rgb(25,27,43)" stroke="rgb(25,27,43)" stroke-width="1" opacity="0.6745098039215687" d="M 1.5 272 L 2 282.5 L 1 282.5 L 1.5 272 Z " /><path fill="rgb(25,27,43)" stroke="rgb(25,27,43)" stroke-width="1" opacity="0.6745098039215687" d="M 592.5 279 L 593 314.5 L 592 314.5 L 592.5 279 Z " /><path fill="rgb(25,27,43)" stroke="rgb(25,27,43)" stroke-width="1" opacity="0.6745098039215687" d="M 0.5 292 L 1 301.5 L 0 301.5 L 0.5 292 Z " /><path fill="rgb(25,27,43)" stroke="rgb(25,27,43)" stroke-width="1" opacity="0.6745098039215687" d="M 1.5 310 L 2 321.5 L 1 321.5 L 1.5 310 Z " /><path fill="rgb(25,27,43)" stroke="rgb(25,27,43)" stroke-width="1" opacity="0.6745098039215687" d="M 591.5 319 L 592 326.5 L 591 326.5 L 591.5 319 Z " /><path fill="rgb(25,27,43)" stroke="rgb(25,27,43)" stroke-width="1" opacity="0.6745098039215687" d="M 2.5 325 L 3 331.5 L 2 331.5 L 2.5 325 Z " /><path fill="rgb(25,27,43)" stroke="rgb(25,27,43)" stroke-width="1" opacity="0.6745098039215687" d="M 590.5 330 L 591 335.5 L 590 335.5 L 590.5 330 Z " /><path fill="rgb(25,27,43)" stroke="rgb(25,27,43)" stroke-width="1" opacity="0.6745098039215687" d="M 3.5 334 L 4 338.5 L 3 338.5 L 3.5 334 Z " /><path fill="rgb(25,27,43)" stroke="rgb(25,27,43)" stroke-width="1" opacity="0.6745098039215687" d="M 589.5 338 L 590 342.5 L 589 342.5 L 589.5 338 Z " /><path fill="rgb(25,27,43)" stroke="rgb(25,27,43)" stroke-width="1" opacity="0.6745098039215687" d="M 4.5 341 L 5 345.5 L 4 345.5 L 4.5 341 Z " /><path fill="rgb(25,27,43)" stroke="rgb(25,27,43)" stroke-width="1" opacity="0.6745098039215687" d="M 588.5 345 L 589 348.5 L 588 348.5 L 588.5 345 Z " /><path fill="rgb(25,27,43)" stroke="rgb(25,27,43)" stroke-width="1" opacity="0.6745098039215687" d="M 5.5 347 L 6 350.5 L 5 350.5 L 5.5 347 Z " /><path fill="rgb(25,27,43)" stroke="rgb(25,27,43)" stroke-width="1" opacity="0.6745098039215687" d="M 587.5 350 L 588 353.5 L 587 353.5 L 587.5 350 Z " /><path fill="rgb(25,27,43)" stroke="rgb(25,27,43)" stroke-width="1" opacity="0.6745098039215687" d="M 6.5 353 L 7 356.5 L 6 356.5 L 6.5 353 Z " /><path fill="rgb(25,27,43)" stroke="rgb(25,27,43)" stroke-width="1" opacity="0.6745098039215687" d="M 586.5 356 L 587 358.5 L 586 358.5 L 586.5 356 Z " /><path fill="rgb(25,27,43)" stroke="rgb(25,27,43)" stroke-width="1" opacity="0.6745098039215687" d="M 7.5 358 L 8 360.5 L 7 360.5 L 7.5 358 Z " /><path fill="rgb(25,27,43)" stroke="rgb(25,27,43)" stroke-width="1" opacity="0.6745098039215687" d="M 585.5 360 L 586 362.5 L 585 362.5 L 585.5 360 Z " /><path fill="rgb(25,27,43)" stroke="rgb(25,27,43)" stroke-width="1" opacity="0.6745098039215687" d="M 8.5 363 L 9 365.5 L 8 365.5 L 8.5 363 Z " /><path fill="rgb(25,27,43)" stroke="rgb(25,27,43)" stroke-width="1" opacity="0.6745098039215687" d="M 584.5 365 L 585 367.5 L 584 367.5 L 584.5 365 Z " /><path fill="rgb(25,27,43)" stroke="rgb(25,27,43)" stroke-width="1" opacity="0.6745098039215687" d="M 9.5 367 L 10 369.5 L 9 369.5 L 9.5 367 Z " /><path fill="rgb(25,27,43)" stroke="rgb(25,27,43)" stroke-width="1" opacity="0.6745098039215687" d="M 583.5 369 L 584 371.5 L 583 371.5 L 583.5 369 Z " /><path fill="rgb(25,27,43)" stroke="rgb(25,27,43)" stroke-width="1" opacity="0.6745098039215687" d="M 12.5 378 L 13 380.5 L 12 380.5 L 12.5 378 Z " /><path fill="rgb(25,27,43)" stroke="rgb(25,27,43)" stroke-width="1" opacity="0.6745098039215687" d="M 579.5 383 L 580 385.5 L 579 385.5 L 579.5 383 Z " /><path fill="rgb(25,27,43)" stroke="rgb(25,27,43)" stroke-width="1" opacity="0.6745098039215687" d="M 21.5 405 L 23 408.5 L 22 408.5 L 21.5 405 Z " /><path fill="rgb(25,27,43)" stroke="rgb(25,27,43)" stroke-width="1" opacity="0.6745098039215687" d="M 569.5 411 L 570 412.5 L 568.5 415 L 568 413.5 L 569.5 411 Z " /><path fill="rgb(25,27,43)" stroke="rgb(25,27,43)" stroke-width="1" opacity="0.6745098039215687" d="M 565.5 420 L 566 421.5 L 563.5 426 L 563 424.5 L 565.5 420 Z " /><path fill="rgb(25,27,43)" stroke="rgb(25,27,43)" stroke-width="1" opacity="0.6745098039215687" d="M 28.5 421 L 30 424.5 L 29 424.5 L 28.5 421 Z " /><path fill="rgb(25,27,43)" stroke="rgb(25,27,43)" stroke-width="1" opacity="0.6745098039215687" d="M 33.5 432 L 37 437.5 L 35 436.5 L 33.5 432 Z " /><path fill="rgb(25,27,43)" stroke="rgb(25,27,43)" stroke-width="1" opacity="0.6745098039215687" d="M 559.5 433 L 559 434.5 L 556.5 439 L 557 437.5 L 559.5 433 Z " /><path fill="rgb(25,27,43)" stroke="rgb(25,27,43)" stroke-width="1" opacity="0.6745098039215687" d="M 39.5 443 L 42 446.5 L 40 445.5 L 39.5 443 Z " /><path fill="rgb(25,27,43)" stroke="rgb(25,27,43)" stroke-width="1" opacity="0.6745098039215687" d="M 553.5 444 L 552.5 446 L 553.5 444 Z " /><path fill="rgb(25,27,43)" stroke="rgb(25,27,43)" stroke-width="1" opacity="0.6745098039215687" d="M 42.5 448 L 45 451.5 L 43 450.5 L 42.5 448 Z " /><path fill="rgb(25,27,43)" stroke="rgb(25,27,43)" stroke-width="1" opacity="0.6745098039215687" d="M 550.5 449 L 549.5 451 L 550.5 449 Z " /><path fill="rgb(25,27,43)" stroke="rgb(25,27,43)" stroke-width="1" opacity="0.6745098039215687" d="M 45.5 453 L 46.5 455 L 45.5 453 Z " /><path fill="rgb(25,27,43)" stroke="rgb(25,27,43)" stroke-width="1" opacity="0.6745098039215687" d="M 547.5 454 L 546.5 456 L 547.5 454 Z " /><path fill="rgb(25,27,43)" stroke="rgb(25,27,43)" stroke-width="1" opacity="0.6745098039215687" d="M 47.5 456 L 55 466.5 L 52 464.5 L 47.5 456 Z " /><path fill="rgb(25,27,43)" stroke="rgb(25,27,43)" stroke-width="1" opacity="0.6745098039215687" d="M 545.5 457 L 544.5 459 L 545.5 457 Z " /><path fill="rgb(25,27,43)" stroke="rgb(25,27,43)" stroke-width="1" opacity="0.6745098039215687" d="M 543.5 460 L 542.5 462 L 543.5 460 Z " /><path fill="rgb(25,27,43)" stroke="rgb(25,27,43)" stroke-width="1" opacity="0.6745098039215687" d="M 541.5 463 L 540.5 465 L 541.5 463 Z " /><path fill="rgb(25,27,43)" stroke="rgb(25,27,43)" stroke-width="1" opacity="0.6745098039215687" d="M 539.5 466 L 538 468.5 L 535.5 472 L 537 469.5 L 539.5 466 Z " /><path fill="rgb(25,27,43)" stroke="rgb(25,27,43)" stroke-width="1" opacity="0.6745098039215687" d="M 55.5 468 L 60 473.5 L 57 471.5 L 55.5 468 Z " /><path fill="rgb(25,27,43)" stroke="rgb(25,27,43)" stroke-width="1" opacity="0.6745098039215687" d="M 534.5 473 L 532.5 476 L 534.5 473 Z " /><path fill="rgb(25,27,43)" stroke="rgb(25,27,43)" stroke-width="1" opacity="0.6745098039215687" d="M 60.5 475 L 63.5 479 L 60.5 475 Z " /><path fill="rgb(25,27,43)" stroke="rgb(25,27,43)" stroke-width="1" opacity="0.6745098039215687" d="M 531.5 477 L 528.5 481 L 531.5 477 Z " /><path fill="rgb(25,27,43)" stroke="rgb(25,27,43)" stroke-width="1" opacity="0.6745098039215687" d="M 64.5 480 L 67.5 484 L 64.5 480 Z " /><path fill="rgb(25,27,43)" stroke="rgb(25,27,43)" stroke-width="1" opacity="0.6745098039215687" d="M 527.5 482 L 524 486.5 L 517.5 494 L 523 487.5 L 527.5 482 Z " /><path fill="rgb(25,27,43)" stroke="rgb(25,27,43)" stroke-width="1" opacity="0.6745098039215687" d="M 68.5 485 L 72.5 490 L 68.5 485 Z " /><path fill="rgb(25,27,43)" stroke="rgb(25,27,43)" stroke-width="1" opacity="0.6745098039215687" d="M 73.5 491 L 91 509.5 L 83 502.5 L 73.5 491 Z " /><path fill="rgb(25,27,43)" stroke="rgb(25,27,43)" stroke-width="1" opacity="0.6745098039215687" d="M 516.5 495 L 495.5 517 L 516.5 495 Z " /><path fill="rgb(25,27,43)" stroke="rgb(25,27,43)" stroke-width="1" opacity="0.6745098039215687" d="M 92.5 510 L 109 525.5 L 103.5 521 L 92.5 510 Z " /><path fill="rgb(25,27,43)" stroke="rgb(25,27,43)" stroke-width="1" opacity="0.6745098039215687" d="M 493.5 517 L 487.5 524 L 482.5 528 L 486.5 523 L 493.5 517 Z " /><path fill="rgb(25,27,43)" stroke="rgb(25,27,43)" stroke-width="1" opacity="0.6745098039215687" d="M 110.5 526 L 113.5 530 L 110.5 526 Z " /><path fill="rgb(25,27,43)" stroke="rgb(25,27,43)" stroke-width="1" opacity="0.6745098039215687" d="M 480.5 528 L 477.5 532 L 480.5 528 Z " /><path fill="rgb(25,27,43)" stroke="rgb(25,27,43)" stroke-width="1" opacity="0.6745098039215687" d="M 115.5 530 L 117.5 533 L 115.5 530 Z " /><path fill="rgb(25,27,43)" stroke="rgb(25,27,43)" stroke-width="1" opacity="0.6745098039215687" d="M 475.5 532 L 473.5 535 L 475.5 532 Z " /><path fill="rgb(25,27,43)" stroke="rgb(25,27,43)" stroke-width="1" opacity="0.6745098039215687" d="M 119.5 533 L 121.5 536 L 119.5 533 Z " /><path fill="rgb(25,27,43)" stroke="rgb(25,27,43)" stroke-width="1" opacity="0.6745098039215687" d="M 471.5 535 L 469.5 538 L 466.5 540 L 468.5 537 L 471.5 535 Z " /><path fill="rgb(25,27,43)" stroke="rgb(25,27,43)" stroke-width="1" opacity="0.6745098039215687" d="M 123.5 536 L 129 540.5 L 126.5 539 L 123.5 536 Z " /><path fill="rgb(25,27,43)" stroke="rgb(25,27,43)" stroke-width="1" opacity="0.6745098039215687" d="M 464.5 540 L 463.5 542 L 464.5 540 Z " /><path fill="rgb(25,27,43)" stroke="rgb(25,27,43)" stroke-width="1" opacity="0.6745098039215687" d="M 130.5 541 L 131.5 543 L 130.5 541 Z " /><path fill="rgb(25,27,43)" stroke="rgb(25,27,43)" stroke-width="1" opacity="0.6745098039215687" d="M 461.5 542 L 460.5 544 L 461.5 542 Z " /><path fill="rgb(25,27,43)" stroke="rgb(25,27,43)" stroke-width="1" opacity="0.6745098039215687" d="M 133.5 543 L 134.5 545 L 133.5 543 Z " /><path fill="rgb(25,27,43)" stroke="rgb(25,27,43)" stroke-width="1" opacity="0.6745098039215687" d="M 458.5 544 L 457.5 546 L 458.5 544 Z " /><path fill="rgb(25,27,43)" stroke="rgb(25,27,43)" stroke-width="1" opacity="0.6745098039215687" d="M 136.5 545 L 137.5 547 L 136.5 545 Z " /><path fill="rgb(25,27,43)" stroke="rgb(25,27,43)" stroke-width="1" opacity="0.6745098039215687" d="M 455.5 546 L 454.5 548 L 455.5 546 Z " /><path fill="rgb(25,27,43)" stroke="rgb(25,27,43)" stroke-width="1" opacity="0.6745098039215687" d="M 139.5 547 L 143 549.5 L 141.5 549 L 139.5 547 Z " /><path fill="rgb(25,27,43)" stroke="rgb(25,27,43)" stroke-width="1" opacity="0.6745098039215687" d="M 450.5 549 L 449.5 551 L 450.5 549 Z " /><path fill="rgb(25,27,43)" stroke="rgb(25,27,43)" stroke-width="1" opacity="0.6745098039215687" d="M 144.5 550 L 148 552.5 L 146.5 552 L 144.5 550 Z " /><path fill="rgb(25,27,43)" stroke="rgb(25,27,43)" stroke-width="1" opacity="0.6745098039215687" d="M 445.5 552 L 444.5 554 L 445.5 552 Z " /><path fill="rgb(25,27,43)" stroke="rgb(25,27,43)" stroke-width="1" opacity="0.6745098039215687" d="M 151.5 554 L 155 556.5 L 153.5 556 L 151.5 554 Z " /><path fill="rgb(25,27,43)" stroke="rgb(25,27,43)" stroke-width="1" opacity="0.6745098039215687" d="M 438.5 556 L 437.5 558 L 433.5 560 L 434.5 558 L 438.5 556 Z " /><path fill="rgb(25,27,43)" stroke="rgb(25,27,43)" stroke-width="1" opacity="0.6745098039215687" d="M 424.5 563 L 426 563.5 L 420.5 566 L 420.5 565 L 424.5 563 Z " /><path fill="rgb(25,27,43)" stroke="rgb(25,27,43)" stroke-width="1" opacity="0.6745098039215687" d="M 413.5 568 L 415 568.5 L 411.5 570 L 411.5 569 L 413.5 568 Z " /><path fill="rgb(25,27,43)" stroke="rgb(25,27,43)" stroke-width="1" opacity="0.6745098039215687" d="M 383.5 579 L 386 579.5 L 383.5 580 L 383.5 579 Z " /><path fill="rgb(25,27,43)" stroke="rgb(25,27,43)" stroke-width="1" opacity="0.6745098039215687" d="M 218.5 582 L 221 582.5 L 218.5 583 L 218.5 582 Z " /><path fill="rgb(25,27,43)" stroke="rgb(25,27,43)" stroke-width="1" opacity="0.6745098039215687" d="M 222.5 583 L 225 583.5 L 222.5 584 L 222.5 583 Z " /><path fill="rgb(25,27,43)" stroke="rgb(25,27,43)" stroke-width="1" opacity="0.6745098039215687" d="M 369.5 583 L 372 583.5 L 369.5 584 L 369.5 583 Z " /><path fill="rgb(25,27,43)" stroke="rgb(25,27,43)" stroke-width="1" opacity="0.6745098039215687" d="M 226.5 584 L 229 584.5 L 226.5 585 L 226.5 584 Z " /><path fill="rgb(25,27,43)" stroke="rgb(25,27,43)" stroke-width="1" opacity="0.6745098039215687" d="M 365.5 584 L 368 584.5 L 365.5 585 L 365.5 584 Z " /><path fill="rgb(25,27,43)" stroke="rgb(25,27,43)" stroke-width="1" opacity="0.6745098039215687" d="M 230.5 585 L 233 585.5 L 230.5 586 L 230.5 585 Z " /><path fill="rgb(25,27,43)" stroke="rgb(25,27,43)" stroke-width="1" opacity="0.6745098039215687" d="M 360.5 585 L 363 585.5 L 360.5 586 L 360.5 585 Z " /><path fill="rgb(25,27,43)" stroke="rgb(25,27,43)" stroke-width="1" opacity="0.6745098039215687" d="M 235.5 586 L 238 586.5 L 235.5 587 L 235.5 586 Z " /><path fill="rgb(25,27,43)" stroke="rgb(25,27,43)" stroke-width="1" opacity="0.6745098039215687" d="M 356.5 586 L 359 586.5 L 356.5 587 L 356.5 586 Z " /><path fill="rgb(25,27,43)" stroke="rgb(25,27,43)" stroke-width="1" opacity="0.6745098039215687" d="M 239.5 587 L 243 587.5 L 239.5 588 L 239.5 587 Z " /><path fill="rgb(25,27,43)" stroke="rgb(25,27,43)" stroke-width="1" opacity="0.6745098039215687" d="M 350.5 587 L 354 587.5 L 350.5 588 L 350.5 587 Z " /><path fill="rgb(25,27,43)" stroke="rgb(25,27,43)" stroke-width="1" opacity="0.6745098039215687" d="M 245.5 588 L 249 588.5 L 245.5 589 L 245.5 588 Z " /><path fill="rgb(25,27,43)" stroke="rgb(25,27,43)" stroke-width="1" opacity="0.6745098039215687" d="M 345.5 588 L 349 588.5 L 345.5 589 L 345.5 588 Z " /><path fill="rgb(25,27,43)" stroke="rgb(25,27,43)" stroke-width="1" opacity="0.6745098039215687" d="M 251.5 589 L 256 589.5 L 251.5 590 L 251.5 589 Z " /><path fill="rgb(25,27,43)" stroke="rgb(25,27,43)" stroke-width="1" opacity="0.6745098039215687" d="M 338.5 589 L 343 589.5 L 338.5 590 L 338.5 589 Z " /><path fill="rgb(25,27,43)" stroke="rgb(25,27,43)" stroke-width="1" opacity="0.6745098039215687" d="M 258.5 590 L 264 590.5 L 258.5 591 L 258.5 590 Z " /><path fill="rgb(25,27,43)" stroke="rgb(25,27,43)" stroke-width="1" opacity="0.6745098039215687" d="M 330.5 590 L 336 590.5 L 330.5 591 L 330.5 590 Z " /><path fill="rgb(25,27,43)" stroke="rgb(25,27,43)" stroke-width="1" opacity="0.6745098039215687" d="M 266.5 591 L 274 591.5 L 266.5 592 L 266.5 591 Z " /><path fill="rgb(25,27,43)" stroke="rgb(25,27,43)" stroke-width="1" opacity="0.6745098039215687" d="M 319.5 591 L 327 591.5 L 319.5 592 L 319.5 591 Z " /><path fill="rgb(25,27,43)" stroke="rgb(25,27,43)" stroke-width="1" opacity="0.6745098039215687" d="M 278.5 592 L 315 592.5 L 278.5 593 L 278.5 592 Z " /><path fill="rgb(0,0,0)" stroke="rgb(0,0,0)" stroke-width="1" opacity="0" d="M 0 0 L 292 0.5 L 262.5 2 L 261.5 3 L 254.5 3 L 232.5 7 L 206.5 14 L 177.5 25 Q 118 52 77 97.5 Q 40.4 137.4 19 192.5 L 11 216.5 L 5 242.5 L 3 261.5 L 2 262.5 L 2 271.5 L 1 272.5 L 0.5 292 L 0 0 Z " /><path fill="rgb(0,0,0)" stroke="rgb(0,0,0)" stroke-width="1" opacity="0" d="M 301.5 0 L 593 0 L 593 278.5 L 592 278.5 L 592 266.5 L 591 265.5 L 591 258.5 L 586 230.5 Q 579.2 201.2 568 176.5 Q 543.5 122.5 503.5 84 Q 463.2 44.3 406.5 21 L 365.5 8 L 331.5 2 L 301.5 1 L 301.5 0 Z " /><path fill="rgb(0,0,0)" stroke="rgb(0,0,0)" stroke-width="1" opacity="0" d="M 0.5 302 L 2 331.5 L 3 332.5 L 6 356.5 L 12 380.5 L 24 413.5 Q 48.8 470.2 90.5 510 Q 127 545.5 176.5 568 Q 201.2 579.2 230.5 586 L 258.5 591 L 278 592.5 L 0 593 L 0.5 302 Z " /><path fill="rgb(0,0,0)" stroke="rgb(0,0,0)" stroke-width="1" opacity="0" d="M 592.5 315 L 593 593 L 315 592.5 L 335.5 591 L 367.5 585 Q 396.7 577.7 421.5 566 Q 477.9 539.4 517 495.5 Q 549.4 459.9 570 412.5 L 577 394.5 L 585 367.5 L 590 342.5 L 592.5 315 Z " /><path fill="rgb(26,27,43)" stroke="rgb(26,27,43)" stroke-width="1" opacity="1" d="M 283.5 1 L 309.5 1 L 310.5 2 L 324.5 2 L 325.5 3 L 340.5 4 L 374.5 11 L 399.5 19 Q 465.5 44.5 510 91.5 Q 551.9 134.1 575 195.5 L 586 233.5 L 590 256.5 L 591 274.5 L 592 275.5 L 592 318.5 L 591 319.5 L 591 329.5 L 590 330.5 L 589 344.5 L 582 376.5 Q 574.3 403.3 563 426.5 Q 536.5 479.5 494.5 517 Q 453.4 554.9 395.5 576 L 364.5 585 L 337.5 590 L 319.5 591 L 318.5 592 L 274.5 592 L 273.5 591 L 264.5 591 L 263.5 590 L 243.5 588 L 213.5 581 L 175.5 567 Q 122.2 542.3 84 502.5 Q 42.3 460.2 19 399.5 L 11 374.5 L 4 340.5 L 3 325.5 L 2 324.5 L 2 310.5 L 1 309.5 L 1 283.5 L 2 282.5 L 2 269.5 L 3 268.5 L 4 252.5 L 8 231.5 L 15 205.5 L 27 174.5 Q 53.9 116.9 98.5 77 Q 133.9 44.4 181.5 24 L 205.5 15 L 231.5 8 L 252.5 4 L 268.5 3 L 269.5 2 L 282.5 2 L 283.5 1 Z M 109 195 L 109 231 L 194 231 L 194 195 L 109 195 Z M 372 196 L 371 197 L 359 198 L 346 202 L 332 210 Q 317 220 313 242 L 313 258 L 314 263 L 322 280 Q 332 292 348 298 L 372 303 L 390 303 L 391 302 L 398 302 L 408 300 Q 423 296 434 286 Q 441 279 445 270 L 448 259 L 448 252 L 435 245 L 428 235 L 424 237 Q 416 238 412 235 L 408 232 L 406 225 L 407 215 L 402 212 L 397 206 Q 396 200 399 198 L 393 196 L 372 196 Z M 413 196 L 410 199 L 413 202 Q 417 203 418 201 L 417 198 Q 418 194 413 196 Z M 228 199 L 228 339 L 231 338 L 270 335 L 271 334 Q 276 335 276 334 L 276 307 L 289 306 L 290 305 L 298 305 L 299 304 L 301 304 L 301 257 L 284 258 L 283 259 Q 276 260 276 259 L 276 199 L 228 199 Z M 463 200 L 463 295 L 511 291 L 512 290 L 512 200 L 463 200 Z M 427 207 L 425 208 L 421 213 L 420 217 L 421 221 L 425 223 Q 431 224 434 221 L 437 217 L 436 211 Q 434 206 427 207 Z M 445 227 Q 441 229 442 234 Q 448 235 449 232 L 448 228 L 445 227 Z M 82 235 L 82 270 L 94 271 L 90 280 L 90 294 Q 92 303 97 310 L 111 321 L 122 326 L 136 329 L 167 329 Q 168 327 173 328 Q 187 325 197 318 Q 208 310 212 295 L 212 279 L 208 271 L 221 270 L 221 236 L 221 235 L 82 235 Z M 503 296 L 493 298 L 466 300 L 464 302 L 464 311 L 463 312 L 420 316 L 411 318 L 394 319 L 393 320 L 384 320 L 384 308 L 381 309 L 372 309 L 371 310 L 362 310 L 361 311 L 335 313 L 335 398 L 512 398 L 512 297 L 512 296 L 503 296 Z M 146 334 L 145 335 L 125 336 L 124 337 L 103 338 L 101 340 L 101 397 L 278 397 L 278 397 L 278 349 L 235 352 L 234 353 L 224 353 L 223 354 L 212 354 L 211 355 L 201 355 L 200 356 L 190 356 L 189 357 L 179 357 L 178 358 L 168 358 L 167 359 L 156 359 L 155 360 Q 149 361 149 360 L 149 336 L 146 334 Z " /><path fill="rgb(26,27,43)" stroke="rgb(26,27,43)" stroke-width="1" opacity="1" d="M 376.5 234 Q 392.2 232.8 398 241.5 Q 401.3 245.2 400 253.5 L 393.5 262 L 388.5 264 L 378.5 265 Q 377.3 262.8 372.5 264 L 363 257.5 Q 359.7 253.8 361 245.5 L 367.5 237 L 376.5 234 Z " /><path fill="rgb(26,27,43)" stroke="rgb(26,27,43)" stroke-width="1" opacity="1" d="M 143.5 271 L 158.5 271 Q 164.3 272.3 167 276.5 L 168 285.5 L 163.5 291 Q 156.6 294.6 144.5 293 L 135 287.5 L 134 278.5 L 138.5 273 L 143.5 271 Z " /><path fill="rgb(26,27,43)" stroke="rgb(26,27,43)" stroke-width="1" opacity="1" d="M 458.5 345 L 464 345 L 464 353 L 444.5 354 L 443.5 355 L 432.5 355 L 431.5 356 L 420.5 356 L 419.5 357 L 409.5 357 L 408.5 358 L 397.5 358 L 396.5 359 L 385.5 359 L 384.5 360 L 384 354 L 404.5 352 L 405.5 351 L 439.5 348 L 440.5 347 L 457.5 346 L 458.5 345 Z " /><path fill="rgb(48,128,169)" stroke="rgb(48,128,169)" stroke-width="1" opacity="1" d="M 109 195 L 194 195.5 L 110 196 L 110 230 L 193.5 230 L 193.5 231 L 109 231 L 109 195 Z " /><path fill="rgb(48,128,169)" stroke="rgb(48,128,169)" stroke-width="1" opacity="1" d="M 371.5 196 L 378 196.5 L 371.5 197 L 371.5 196 Z " /><path fill="rgb(48,128,169)" stroke="rgb(48,128,169)" stroke-width="1" opacity="1" d="M 387.5 196 L 393 196.5 L 387.5 197 L 387.5 196 Z " /><path fill="rgb(48,128,169)" stroke="rgb(48,128,169)" stroke-width="1" opacity="1" d="M 363.5 197 L 367 197.5 L 363.5 198 L 363.5 197 Z " /><path fill="rgb(48,128,169)" stroke="rgb(48,128,169)" stroke-width="1" opacity="1" d="M 358.5 198 L 361 198.5 L 358.5 199 L 358.5 198 Z " /><path fill="rgb(48,128,169)" stroke="rgb(48,128,169)" stroke-width="1" opacity="1" d="M 417.5 198 L 418 200.5 L 416 201.5 L 417.5 198 Z " /><path fill="rgb(48,128,169)" stroke="rgb(48,128,169)" stroke-width="1" opacity="1" d="M 228 199 L 276 199.5 L 229 200 L 229 337.5 L 230 338.5 L 228 339 L 228 199 Z " /><path fill="rgb(48,128,169)" stroke="rgb(48,128,169)" stroke-width="1" opacity="1" d="M 411.5 200 L 412.5 202 L 411.5 200 Z " /><path fill="rgb(48,128,169)" stroke="rgb(48,128,169)" stroke-width="1" opacity="1" d="M 463.5 200 L 464 294.5 L 463 294.5 L 463.5 200 Z " /><path fill="rgb(48,128,169)" stroke="rgb(48,128,169)" stroke-width="1" opacity="1" d="M 511.5 200 L 512 289.5 Q 511.3 291.8 507.5 291 L 507.5 290 L 511 289.5 L 511.5 200 Z " /><path fill="rgb(48,128,169)" stroke="rgb(48,128,169)" stroke-width="1" opacity="1" d="M 424.5 208 L 423.5 210 L 424.5 208 Z " /><path fill="rgb(48,128,169)" stroke="rgb(48,128,169)" stroke-width="1" opacity="1" d="M 433.5 208 L 435.5 211 L 433.5 208 Z " /><path fill="rgb(48,128,169)" stroke="rgb(48,128,169)" stroke-width="1" opacity="1" d="M 331.5 210 L 329.5 213 L 331.5 210 Z " /><path fill="rgb(48,128,169)" stroke="rgb(48,128,169)" stroke-width="1" opacity="1" d="M 436.5 212 L 437 216.5 L 436 216.5 L 436.5 212 Z " /><path fill="rgb(48,128,169)" stroke="rgb(48,128,169)" stroke-width="1" opacity="1" d="M 404.5 213 L 407 214.5 L 406.5 217 L 406 214 L 404.5 213 Z " /><path fill="rgb(48,128,169)" stroke="rgb(48,128,169)" stroke-width="1" opacity="1" d="M 420.5 216 L 421 218.5 L 420 218.5 L 420.5 216 Z " /><path fill="rgb(48,128,169)" stroke="rgb(48,128,169)" stroke-width="1" opacity="1" d="M 324.5 217 L 322.5 220 L 324.5 217 Z " /><path fill="rgb(48,128,169)" stroke="rgb(48,128,169)" stroke-width="1" opacity="1" d="M 435.5 218 L 433.5 221 L 435.5 218 Z " /><path fill="rgb(48,128,169)" stroke="rgb(48,128,169)" stroke-width="1" opacity="1" d="M 421.5 220 L 422.5 222 L 421.5 220 Z " /><path fill="rgb(48,128,169)" stroke="rgb(48,128,169)" stroke-width="1" opacity="1" d="M 424.5 222 L 430 222.5 L 424.5 223 L 424.5 222 Z " /><path fill="rgb(48,128,169)" stroke="rgb(48,128,169)" stroke-width="1" opacity="1" d="M 319.5 224 L 318.5 226 L 319.5 224 Z " /><path fill="rgb(48,128,169)" stroke="rgb(48,128,169)" stroke-width="1" opacity="1" d="M 406.5 225 L 407 227.5 L 406 227.5 L 406.5 225 Z " /><path fill="rgb(48,128,169)" stroke="rgb(48,128,169)" stroke-width="1" opacity="1" d="M 448.5 230 L 449 231.5 L 446 233.5 L 448.5 230 Z " /><path fill="rgb(48,128,169)" stroke="rgb(48,128,169)" stroke-width="1" opacity="1" d="M 408.5 232 L 410.5 235 L 408.5 232 Z " /><path fill="rgb(48,128,169)" stroke="rgb(48,128,169)" stroke-width="1" opacity="1" d="M 373.5 234 L 376 234.5 L 373.5 235 L 373.5 234 Z " /><path fill="rgb(48,128,169)" stroke="rgb(48,128,169)" stroke-width="1" opacity="1" d="M 385.5 234 L 388 234.5 L 385.5 235 L 385.5 234 Z " /><path fill="rgb(48,128,169)" stroke="rgb(48,128,169)" stroke-width="1" opacity="1" d="M 82.5 235 L 221 235.5 L 82.5 236 L 82.5 235 Z " /><path fill="rgb(48,128,169)" stroke="rgb(48,128,169)" stroke-width="1" opacity="1" d="M 394.5 237 L 397.5 241 L 394.5 237 Z " /><path fill="rgb(48,128,169)" stroke="rgb(48,128,169)" stroke-width="1" opacity="1" d="M 365.5 238 L 363.5 241 L 365.5 238 Z " /><path fill="rgb(48,128,169)" stroke="rgb(48,128,169)" stroke-width="1" opacity="1" d="M 429.5 239 L 430.5 241 L 429.5 239 Z " /><path fill="rgb(48,128,169)" stroke="rgb(48,128,169)" stroke-width="1" opacity="1" d="M 313.5 241 L 314 244.5 L 313 244.5 L 313.5 241 Z " /><path fill="rgb(48,128,169)" stroke="rgb(48,128,169)" stroke-width="1" opacity="1" d="M 435.5 245 L 436.5 247 L 435.5 245 Z " /><path fill="rgb(48,128,169)" stroke="rgb(48,128,169)" stroke-width="1" opacity="1" d="M 360.5 247 L 361 251.5 L 360 251.5 L 360.5 247 Z " /><path fill="rgb(48,128,169)" stroke="rgb(48,128,169)" stroke-width="1" opacity="1" d="M 400.5 247 L 401 251.5 L 400 251.5 L 400.5 247 Z " /><path fill="rgb(48,128,169)" stroke="rgb(48,128,169)" stroke-width="1" opacity="1" d="M 313.5 254 L 314 257.5 L 313 257.5 L 313.5 254 Z " /><path fill="rgb(48,128,169)" stroke="rgb(48,128,169)" stroke-width="1" opacity="1" d="M 447.5 256 L 448 258.5 L 447 258.5 L 447.5 256 Z " /><path fill="rgb(48,128,169)" stroke="rgb(48,128,169)" stroke-width="1" opacity="1" d="M 292.5 257 L 296 257.5 L 292.5 258 L 292.5 257 Z " /><path fill="rgb(48,128,169)" stroke="rgb(48,128,169)" stroke-width="1" opacity="1" d="M 300.5 257 L 301 303.5 L 300 303.5 L 300.5 257 Z " /><path fill="rgb(48,128,169)" stroke="rgb(48,128,169)" stroke-width="1" opacity="1" d="M 283.5 258 L 287 258.5 L 283.5 259 L 283.5 258 Z " /><path fill="rgb(48,128,169)" stroke="rgb(48,128,169)" stroke-width="1" opacity="1" d="M 363.5 258 L 365.5 261 L 363.5 258 Z " /><path fill="rgb(48,128,169)" stroke="rgb(48,128,169)" stroke-width="1" opacity="1" d="M 397.5 258 L 395.5 261 L 397.5 258 Z " /><path fill="rgb(48,128,169)" stroke="rgb(48,128,169)" stroke-width="1" opacity="1" d="M 276.5 259 L 279 259.5 L 276.5 260 L 276.5 259 Z " /><path fill="rgb(48,128,169)" stroke="rgb(48,128,169)" stroke-width="1" opacity="1" d="M 367.5 261 L 370 262.5 L 368.5 263 L 367.5 261 Z " /><path fill="rgb(48,128,169)" stroke="rgb(48,128,169)" stroke-width="1" opacity="1" d="M 374.5 264 L 378 264.5 L 374.5 265 L 374.5 264 Z " /><path fill="rgb(48,128,169)" stroke="rgb(48,128,169)" stroke-width="1" opacity="1" d="M 383.5 264 L 387 264.5 L 383.5 265 L 383.5 264 Z " /><path fill="rgb(48,128,169)" stroke="rgb(48,128,169)" stroke-width="1" opacity="1" d="M 146.5 270 L 156 270.5 L 146.5 271 L 146.5 270 Z " /><path fill="rgb(48,128,169)" stroke="rgb(48,128,169)" stroke-width="1" opacity="1" d="M 137.5 273 L 136.5 275 L 137.5 273 Z " /><path fill="rgb(48,128,169)" stroke="rgb(48,128,169)" stroke-width="1" opacity="1" d="M 164.5 273 L 166.5 276 L 164.5 273 Z " /><path fill="rgb(48,128,169)" stroke="rgb(48,128,169)" stroke-width="1" opacity="1" d="M 320.5 276 L 321.5 278 L 320.5 276 Z " /><path fill="rgb(48,128,169)" stroke="rgb(48,128,169)" stroke-width="1" opacity="1" d="M 439.5 278 L 437.5 281 L 439.5 278 Z " /><path fill="rgb(48,128,169)" stroke="rgb(48,128,169)" stroke-width="1" opacity="1" d="M 90.5 279 L 91 282.5 L 90 282.5 L 90.5 279 Z " /><path fill="rgb(48,128,169)" stroke="rgb(48,128,169)" stroke-width="1" opacity="1" d="M 168.5 279 L 169 284.5 L 168 284.5 L 168.5 279 Z " /><path fill="rgb(48,128,169)" stroke="rgb(48,128,169)" stroke-width="1" opacity="1" d="M 322.5 279 L 324.5 282 L 322.5 279 Z " /><path fill="rgb(48,128,169)" stroke="rgb(48,128,169)" stroke-width="1" opacity="1" d="M 133.5 280 L 134 283.5 L 133 283.5 L 133.5 280 Z " /><path fill="rgb(48,128,169)" stroke="rgb(48,128,169)" stroke-width="1" opacity="1" d="M 434.5 284 L 433.5 286 L 434.5 284 Z " /><path fill="rgb(48,128,169)" stroke="rgb(48,128,169)" stroke-width="1" opacity="1" d="M 329.5 286 L 331.5 289 L 329.5 286 Z " /><path fill="rgb(48,128,169)" stroke="rgb(48,128,169)" stroke-width="1" opacity="1" d="M 166.5 288 L 164.5 291 L 166.5 288 Z " /><path fill="rgb(48,128,169)" stroke="rgb(48,128,169)" stroke-width="1" opacity="1" d="M 429.5 288 L 428.5 290 L 429.5 288 Z " /><path fill="rgb(48,128,169)" stroke="rgb(48,128,169)" stroke-width="1" opacity="1" d="M 90.5 290 L 91 293.5 L 90 293.5 L 90.5 290 Z " /><path fill="rgb(48,128,169)" stroke="rgb(48,128,169)" stroke-width="1" opacity="1" d="M 334.5 290 L 335.5 292 L 334.5 290 Z " /><path fill="rgb(48,128,169)" stroke="rgb(48,128,169)" stroke-width="1" opacity="1" d="M 497.5 291 L 502 291.5 L 497.5 292 L 497.5 291 Z " /><path fill="rgb(48,128,169)" stroke="rgb(48,128,169)" stroke-width="1" opacity="1" d="M 423.5 292 L 422.5 294 L 423.5 292 Z " /><path fill="rgb(48,128,169)" stroke="rgb(48,128,169)" stroke-width="1" opacity="1" d="M 487.5 292 L 492 292.5 L 487.5 293 L 487.5 292 Z " /><path fill="rgb(48,128,169)" stroke="rgb(48,128,169)" stroke-width="1" opacity="1" d="M 477.5 293 L 482 293.5 L 477.5 294 L 477.5 293 Z " /><path fill="rgb(48,128,169)" stroke="rgb(48,128,169)" stroke-width="1" opacity="1" d="M 467.5 294 L 472 294.5 L 467.5 295 L 467.5 294 Z " /><path fill="rgb(48,128,169)" stroke="rgb(48,128,169)" stroke-width="1" opacity="1" d="M 502.5 296 L 507 296.5 L 502.5 297 L 502.5 296 Z " /><path fill="rgb(48,128,169)" stroke="rgb(48,128,169)" stroke-width="1" opacity="1" d="M 511.5 296 L 512 397.5 L 511 397.5 L 511.5 296 Z " /><path fill="rgb(48,128,169)" stroke="rgb(48,128,169)" stroke-width="1" opacity="1" d="M 493.5 297 L 497 297.5 L 493.5 298 L 493.5 297 Z " /><path fill="rgb(48,128,169)" stroke="rgb(48,128,169)" stroke-width="1" opacity="1" d="M 483.5 298 L 488 298.5 L 483.5 299 L 483.5 298 Z " /><path fill="rgb(48,128,169)" stroke="rgb(48,128,169)" stroke-width="1" opacity="1" d="M 473.5 299 L 478 299.5 L 473.5 300 L 473.5 299 Z " /><path fill="rgb(48,128,169)" stroke="rgb(48,128,169)" stroke-width="1" opacity="1" d="M 401.5 300 L 404 300.5 L 401.5 301 L 401.5 300 Z " /><path fill="rgb(48,128,169)" stroke="rgb(48,128,169)" stroke-width="1" opacity="1" d="M 465.5 300 L 468 300.5 L 465 301 L 465 311.5 L 463.5 312 L 464 310.5 L 464 301.5 L 465.5 300 Z " /><path fill="rgb(48,128,169)" stroke="rgb(48,128,169)" stroke-width="1" opacity="1" d="M 363.5 301 L 366 301.5 L 363.5 302 L 363.5 301 Z " /><path fill="rgb(48,128,169)" stroke="rgb(48,128,169)" stroke-width="1" opacity="1" d="M 395.5 301 L 398 301.5 L 395.5 302 L 395.5 301 Z " /><path fill="rgb(48,128,169)" stroke="rgb(48,128,169)" stroke-width="1" opacity="1" d="M 371.5 302 L 390 302.5 L 371.5 303 L 371.5 302 Z " /><path fill="rgb(48,128,169)" stroke="rgb(48,128,169)" stroke-width="1" opacity="1" d="M 294.5 304 L 298 304.5 L 294.5 305 L 294.5 304 Z " /><path fill="rgb(48,128,169)" stroke="rgb(48,128,169)" stroke-width="1" opacity="1" d="M 285.5 305 L 289 305.5 L 285.5 306 L 285.5 305 Z " /><path fill="rgb(48,128,169)" stroke="rgb(48,128,169)" stroke-width="1" opacity="1" d="M 95.5 306 L 96.5 308 L 95.5 306 Z " /><path fill="rgb(48,128,169)" stroke="rgb(48,128,169)" stroke-width="1" opacity="1" d="M 276.5 306 L 281 306.5 L 276.5 307 L 276.5 306 Z " /><path fill="rgb(48,128,169)" stroke="rgb(48,128,169)" stroke-width="1" opacity="1" d="M 205.5 308 L 203.5 311 L 205.5 308 Z " /><path fill="rgb(48,128,169)" stroke="rgb(48,128,169)" stroke-width="1" opacity="1" d="M 381.5 308 L 384 308.5 L 384 320 L 388.5 320 L 388.5 321 L 383 321 L 383 309.5 L 381.5 309 L 381.5 308 Z " /><path fill="rgb(48,128,169)" stroke="rgb(48,128,169)" stroke-width="1" opacity="1" d="M 97.5 309 L 104.5 317 L 97.5 309 Z " /><path fill="rgb(48,128,169)" stroke="rgb(48,128,169)" stroke-width="1" opacity="1" d="M 371.5 309 L 376 309.5 L 371.5 310 L 371.5 309 Z " /><path fill="rgb(48,128,169)" stroke="rgb(48,128,169)" stroke-width="1" opacity="1" d="M 361.5 310 L 366 310.5 L 361.5 311 L 361.5 310 Z " /><path fill="rgb(48,128,169)" stroke="rgb(48,128,169)" stroke-width="1" opacity="1" d="M 352.5 311 L 357 311.5 L 352.5 312 L 352.5 311 Z " /><path fill="rgb(48,128,169)" stroke="rgb(48,128,169)" stroke-width="1" opacity="1" d="M 342.5 312 L 347 312.5 L 342.5 313 L 342.5 312 Z " /><path fill="rgb(48,128,169)" stroke="rgb(48,128,169)" stroke-width="1" opacity="1" d="M 454.5 312 L 459 312.5 L 454.5 313 L 454.5 312 Z " /><path fill="rgb(48,128,169)" stroke="rgb(48,128,169)" stroke-width="1" opacity="1" d="M 335 313 L 337 313.5 L 336 314.5 L 335.5 398 L 335 313 Z " /><path fill="rgb(48,128,169)" stroke="rgb(48,128,169)" stroke-width="1" opacity="1" d="M 446.5 313 L 450 313.5 L 446.5 314 L 446.5 313 Z " /><path fill="rgb(48,128,169)" stroke="rgb(48,128,169)" stroke-width="1" opacity="1" d="M 437.5 314 L 441 314.5 L 437.5 315 L 437.5 314 Z " /><path fill="rgb(48,128,169)" stroke="rgb(48,128,169)" stroke-width="1" opacity="1" d="M 198.5 315 L 196.5 318 L 198.5 315 Z " /><path fill="rgb(48,128,169)" stroke="rgb(48,128,169)" stroke-width="1" opacity="1" d="M 428.5 315 L 432 315.5 L 428.5 316 L 428.5 315 Z " /><path fill="rgb(48,128,169)" stroke="rgb(48,128,169)" stroke-width="1" opacity="1" d="M 419.5 316 L 424 316.5 L 419.5 317 L 419.5 316 Z " /><path fill="rgb(48,128,169)" stroke="rgb(48,128,169)" stroke-width="1" opacity="1" d="M 411.5 317 L 415 317.5 L 411.5 318 L 411.5 317 Z " /><path fill="rgb(48,128,169)" stroke="rgb(48,128,169)" stroke-width="1" opacity="1" d="M 194.5 318 L 193.5 320 L 194.5 318 Z " /><path fill="rgb(48,128,169)" stroke="rgb(48,128,169)" stroke-width="1" opacity="1" d="M 402.5 318 L 406 318.5 L 402.5 319 L 402.5 318 Z " /><path fill="rgb(48,128,169)" stroke="rgb(48,128,169)" stroke-width="1" opacity="1" d="M 393.5 319 L 397 319.5 L 393.5 320 L 393.5 319 Z " /><path fill="rgb(48,128,169)" stroke="rgb(48,128,169)" stroke-width="1" opacity="1" d="M 129.5 327 L 132 327.5 L 129.5 328 L 129.5 327 Z " /><path fill="rgb(48,128,169)" stroke="rgb(48,128,169)" stroke-width="1" opacity="1" d="M 135.5 328 L 140 328.5 L 135.5 329 L 135.5 328 Z " /><path fill="rgb(48,128,169)" stroke="rgb(48,128,169)" stroke-width="1" opacity="1" d="M 162.5 328 L 167 328.5 L 162.5 329 L 162.5 328 Z " /><path fill="rgb(48,128,169)" stroke="rgb(48,128,169)" stroke-width="1" opacity="1" d="M 145.5 334 L 149 335.5 L 149 359.5 L 150 360.5 L 148 359.5 L 148 335.5 L 145.5 335 L 145.5 334 Z " /><path fill="rgb(48,128,169)" stroke="rgb(48,128,169)" stroke-width="1" opacity="1" d="M 265.5 334 L 270 334.5 L 265.5 335 L 265.5 334 Z " /><path fill="rgb(48,128,169)" stroke="rgb(48,128,169)" stroke-width="1" opacity="1" d="M 134.5 335 L 140 335.5 L 134.5 336 L 134.5 335 Z " /><path fill="rgb(48,128,169)" stroke="rgb(48,128,169)" stroke-width="1" opacity="1" d="M 255.5 335 L 260 335.5 L 255.5 336 L 255.5 335 Z " /><path fill="rgb(48,128,169)" stroke="rgb(48,128,169)" stroke-width="1" opacity="1" d="M 124.5 336 L 129 336.5 L 124.5 337 L 124.5 336 Z " /><path fill="rgb(48,128,169)" stroke="rgb(48,128,169)" stroke-width="1" opacity="1" d="M 245.5 336 L 250 336.5 L 245.5 337 L 245.5 336 Z " /><path fill="rgb(48,128,169)" stroke="rgb(48,128,169)" stroke-width="1" opacity="1" d="M 113.5 337 L 118 337.5 L 113.5 338 L 113.5 337 Z " /><path fill="rgb(48,128,169)" stroke="rgb(48,128,169)" stroke-width="1" opacity="1" d="M 235.5 337 L 240 337.5 L 235.5 338 L 235.5 337 Z " /><path fill="rgb(48,128,169)" stroke="rgb(48,128,169)" stroke-width="1" opacity="1" d="M 102.5 338 L 107 338.5 L 102.5 339 L 102.5 338 Z " /><path fill="rgb(48,128,169)" stroke="rgb(48,128,169)" stroke-width="1" opacity="1" d="M 462.5 344 L 465 345.5 L 464.5 353 L 464 345 L 462.5 344 Z " /><path fill="rgb(48,128,169)" stroke="rgb(48,128,169)" stroke-width="1" opacity="1" d="M 454.5 345 L 458 345.5 L 454.5 346 L 454.5 345 Z " /><path fill="rgb(48,128,169)" stroke="rgb(48,128,169)" stroke-width="1" opacity="1" d="M 445.5 346 L 449 346.5 L 445.5 347 L 445.5 346 Z " /><path fill="rgb(48,128,169)" stroke="rgb(48,128,169)" stroke-width="1" opacity="1" d="M 436.5 347 L 440 347.5 L 436.5 348 L 436.5 347 Z " /><path fill="rgb(48,128,169)" stroke="rgb(48,128,169)" stroke-width="1" opacity="1" d="M 427.5 348 L 432 348.5 L 427.5 349 L 427.5 348 Z " /><path fill="rgb(48,128,169)" stroke="rgb(48,128,169)" stroke-width="1" opacity="1" d="M 268.5 349 L 273 349.5 L 268.5 350 L 268.5 349 Z " /><path fill="rgb(48,128,169)" stroke="rgb(48,128,169)" stroke-width="1" opacity="1" d="M 418.5 349 L 423 349.5 L 418.5 350 L 418.5 349 Z " /><path fill="rgb(48,128,169)" stroke="rgb(48,128,169)" stroke-width="1" opacity="1" d="M 256.5 350 L 262 350.5 L 256.5 351 L 256.5 350 Z " /><path fill="rgb(48,128,169)" stroke="rgb(48,128,169)" stroke-width="1" opacity="1" d="M 410.5 350 L 414 350.5 L 410.5 351 L 410.5 350 Z " /><path fill="rgb(48,128,169)" stroke="rgb(48,128,169)" stroke-width="1" opacity="1" d="M 245.5 351 L 251 351.5 L 245.5 352 L 245.5 351 Z " /><path fill="rgb(48,128,169)" stroke="rgb(48,128,169)" stroke-width="1" opacity="1" d="M 401.5 351 L 405 351.5 L 401.5 352 L 401.5 351 Z " /><path fill="rgb(48,128,169)" stroke="rgb(48,128,169)" stroke-width="1" opacity="1" d="M 234.5 352 L 240 352.5 L 234.5 353 L 234.5 352 Z " /><path fill="rgb(48,128,169)" stroke="rgb(48,128,169)" stroke-width="1" opacity="1" d="M 392.5 352 L 397 352.5 L 392.5 353 L 392.5 352 Z " /><path fill="rgb(48,128,169)" stroke="rgb(48,128,169)" stroke-width="1" opacity="1" d="M 223.5 353 L 228 353.5 L 223.5 354 L 223.5 353 Z " /><path fill="rgb(48,128,169)" stroke="rgb(48,128,169)" stroke-width="1" opacity="1" d="M 384.5 353 L 388 353.5 L 384 354 L 383.5 360 L 383 354.5 L 384.5 353 Z " /><path fill="rgb(48,128,169)" stroke="rgb(48,128,169)" stroke-width="1" opacity="1" d="M 456.5 353 L 461 353.5 L 456.5 354 L 456.5 353 Z " /><path fill="rgb(48,128,169)" stroke="rgb(48,128,169)" stroke-width="1" opacity="1" d="M 211.5 354 L 217 354.5 L 211.5 355 L 211.5 354 Z " /><path fill="rgb(48,128,169)" stroke="rgb(48,128,169)" stroke-width="1" opacity="1" d="M 444.5 354 L 450 354.5 L 444.5 355 L 444.5 354 Z " /><path fill="rgb(48,128,169)" stroke="rgb(48,128,169)" stroke-width="1" opacity="1" d="M 200.5 355 L 206 355.5 L 200.5 356 L 200.5 355 Z " /><path fill="rgb(48,128,169)" stroke="rgb(48,128,169)" stroke-width="1" opacity="1" d="M 432.5 355 L 438 355.5 L 432.5 356 L 432.5 355 Z " /><path fill="rgb(48,128,169)" stroke="rgb(48,128,169)" stroke-width="1" opacity="1" d="M 189.5 356 L 195 356.5 L 189.5 357 L 189.5 356 Z " /><path fill="rgb(48,128,169)" stroke="rgb(48,128,169)" stroke-width="1" opacity="1" d="M 420.5 356 L 426 356.5 L 420.5 357 L 420.5 356 Z " /><path fill="rgb(48,128,169)" stroke="rgb(48,128,169)" stroke-width="1" opacity="1" d="M 178.5 357 L 183 357.5 L 178.5 358 L 178.5 357 Z " /><path fill="rgb(48,128,169)" stroke="rgb(48,128,169)" stroke-width="1" opacity="1" d="M 409.5 357 L 415 357.5 L 409.5 358 L 409.5 357 Z " /><path fill="rgb(48,128,169)" stroke="rgb(48,128,169)" stroke-width="1" opacity="1" d="M 167.5 358 L 172 358.5 L 167.5 359 L 167.5 358 Z " /><path fill="rgb(48,128,169)" stroke="rgb(48,128,169)" stroke-width="1" opacity="1" d="M 397.5 358 L 403 358.5 L 397.5 359 L 397.5 358 Z " /><path fill="rgb(48,128,169)" stroke="rgb(48,128,169)" stroke-width="1" opacity="1" d="M 155.5 359 L 161 359.5 L 155.5 360 L 155.5 359 Z " /><path fill="rgb(48,128,169)" stroke="rgb(48,128,169)" stroke-width="1" opacity="1" d="M 385.5 359 L 391 359.5 L 385.5 360 L 385.5 359 Z " /><path fill="rgb(48,128,169)" stroke="rgb(48,128,169)" stroke-width="1" opacity="1" d="M 101.5 396 L 278 396.5 L 101.5 397 L 101.5 396 Z " /><path fill="rgb(59,177,230)" stroke="rgb(59,177,230)" stroke-width="1" opacity="1" d="M 110 196 L 194 196 L 194 230 L 110 230 L 110 196 Z " /><path fill="rgb(59,177,230)" stroke="rgb(59,177,230)" stroke-width="1" opacity="1" d="M 378.5 196 L 396.5 197 L 398 198.5 L 397 206.5 L 399 211 L 406 214 L 406 227.5 L 410.5 235 Q 415.2 238.8 425.5 237 L 428 236 L 429 239.5 L 436.5 247 L 448 251 L 447 261.5 L 444 270.5 Q 439 281 430.5 288 L 417.5 296 L 405.5 300 L 394.5 302 L 366.5 302 L 346.5 297 Q 333.6 291.9 325 282.5 Q 318.5 275 315 264.5 L 313 253.5 L 313 245.5 L 315 234.5 L 318 226.5 L 328.5 213 Q 337.1 205.1 349.5 201 L 361.5 198 L 377.5 197 L 378.5 196 Z M 374 234 L 366 238 L 360 248 L 360 252 L 363 259 Q 367 264 375 265 Q 389 267 396 261 L 401 252 L 401 248 L 398 241 Q 392 231 374 234 Z " /><path fill="rgb(59,177,230)" stroke="rgb(59,177,230)" stroke-width="1" opacity="1" d="M 414.5 196 L 417 197.5 Q 417.8 201.3 415.5 202 Q 411.5 202.5 411 199.5 Q 409.8 195.8 413.5 197 L 414.5 196 Z " /><path fill="rgb(59,177,230)" stroke="rgb(59,177,230)" stroke-width="1" opacity="1" d="M 229 200 L 276 200 L 276 259.5 L 278.5 260 L 279.5 259 L 300 257 L 300 303.5 Q 299.9 304.6 294.5 304 L 293.5 305 L 276 306 L 276 332.5 L 274.5 334 L 265.5 334 L 264.5 335 L 255.5 335 L 254.5 336 L 245.5 336 L 244.5 337 L 229 338 L 229 200 Z " /><path fill="rgb(59,177,230)" stroke="rgb(59,177,230)" stroke-width="1" opacity="1" d="M 464 200 L 511 200 L 511 290 Q 506.1 291.8 497.5 291 L 496.5 292 L 487.5 292 L 486.5 293 L 477.5 293 L 476.5 294 L 467.5 294 L 464 295 L 464 200 Z " /><path fill="rgb(59,177,230)" stroke="rgb(59,177,230)" stroke-width="1" opacity="1" d="M 427.5 207 Q 433.9 207.1 436 211.5 Q 437.5 219.5 432.5 221 L 423.5 222 Q 419.8 220.8 421 214.5 L 425.5 208 L 427.5 207 Z " /><path fill="rgb(59,177,230)" stroke="rgb(59,177,230)" stroke-width="1" opacity="1" d="M 443 228 Q 446.8 227 448 229.5 Q 448.5 233.5 445.5 234 L 442 232.5 L 443 228 Z " /><path fill="rgb(59,177,230)" stroke="rgb(59,177,230)" stroke-width="1" opacity="1" d="M 82 236 L 220.5 236 L 221 236.5 L 221 270 L 208.5 270 L 208 271.5 Q 213.8 278.2 212 292.5 Q 209.2 307.2 199.5 315 Q 189.7 323.2 175.5 327 L 162.5 328 L 161.5 329 L 140.5 329 L 117.5 324 Q 104.6 318.9 97 308.5 Q 89.7 299.8 90 283.5 L 94 270 L 82 270 L 82 236 Z M 147 270 L 138 273 L 133 281 L 134 287 L 143 293 L 160 293 L 165 291 L 169 285 Q 170 278 167 276 L 161 271 L 147 270 Z " /><path fill="rgb(59,177,230)" stroke="rgb(59,177,230)" stroke-width="1" opacity="1" d="M 507.5 296 L 511 296.5 L 511 398 L 336 398 L 336 314.5 L 337.5 313 L 346.5 313 L 347.5 312 L 356.5 312 L 357.5 311 L 383 309 L 383 321 L 388.5 321 L 397.5 319 L 405.5 319 L 406.5 318 L 414.5 318 L 415.5 317 L 423.5 317 L 424.5 316 L 465 312 L 465 301.5 L 467.5 301 L 468.5 300 L 487.5 299 L 488.5 298 L 506.5 297 L 507.5 296 Z M 463 344 L 454 346 L 446 346 L 445 347 L 437 347 L 436 348 L 411 350 L 410 351 L 385 353 Q 381 355 383 360 L 403 359 L 404 358 L 415 358 L 416 357 L 426 357 L 427 356 L 438 356 L 439 355 L 450 355 L 451 354 L 461 354 L 462 353 L 465 353 L 465 346 L 463 344 Z " /><path fill="rgb(59,177,230)" stroke="rgb(59,177,230)" stroke-width="1" opacity="1" d="M 140.5 335 L 147.5 335 L 148 335.5 L 148 359.5 Q 149.3 362.3 150.5 360 L 160.5 360 L 161.5 359 L 194.5 357 L 195.5 356 L 205.5 356 L 206.5 355 L 239.5 353 L 240.5 352 L 250.5 352 L 251.5 351 L 261.5 351 L 262.5 350 L 272.5 350 L 278 349 L 278 395.5 L 277.5 396 L 101 396 L 101 339.5 Q 101.1 338.4 106.5 339 L 107.5 338 L 128.5 337 L 129.5 336 L 139.5 336 L 140.5 335 Z " /></svg>